<svg width="280" height="89" viewBox="0 0 280 89" fill="none" xmlns="http://www.w3.org/2000/svg">
<path d="M268.5 23.5V31.5H279.5V21C279.5 8.6 271.5 3.16667 267.5 2C260.667 -0.333332 245.7 -1.6 240.5 12C235.3 25.6 238.333 35.3333 240.5 38.5C242.833 41.8333 249.8 49.1 259 51.5C268.2 53.9 269.167 62.5 268.5 66.5C268.833 69.1667 267.5 76.5 259 76.5C250.449 76.5 248.5 70.5 248.5 66.5V57.5H238.5V73C244.1 88.2 257.833 89 264 87.5C274.8 85.5 278.833 75.6667 279.5 71C280.667 63 280.1 46.2 268.5 43C256.9 39.8 251 34 249.5 31.5V23.5C249.5 19.5 251.4 11.5 259 11.5C266.6 11.5 268.5 19.5 268.5 23.5Z" fill="#444444"/>
<path fill-rule="evenodd" clip-rule="evenodd" d="M168 1.5V87.5H190.5C195 87.3333 204.5 83.9 206.5 71.5V21C206.5 15.5 203.3 3.9 190.5 1.5H168ZM178.5 76.5V12H188.5C190.833 12.6667 195.5 15.3 195.5 20.5V68C195.333 70.8333 193.7 76.5 188.5 76.5H178.5Z" fill="#444444"/>
<path fill-rule="evenodd" clip-rule="evenodd" d="M116 87.5L136 1.5H144L165 87.5H153.5L148 63.5H133L127.5 87.5H116ZM135 52.5L140 31.5L145.5 52.5H135Z" fill="#444444"/>
<path d="M101.5 87.5H92L70.5 1.5H82L97 58.5L111.5 1.5H122.5L101.5 87.5Z" fill="#444444"/>
<path d="M21.5 11.5C31.2324 11.5 31.5 23.5 31.5 31.5H42V19C42 13.5 35.5 1.5 21.5 1.5C6.96176 1.5 0.5 11.5 0.5 19V69C0.5 75 6.7 87.1 21.5 87.5C36.3 87.9 42 75 42 69V57.5H31.5V69C30.8333 71.6667 28.5 77.5 21.5 77.5C15.0875 77.5 12.5 72 12 69V31.5C12 25.5 12 11.5 21.5 11.5Z" fill="#444444"/>
<rect x="50" y="1" width="11" height="87" fill="#444444"/>
<rect x="217" y="1" width="11" height="87" fill="#444444"/>
</svg>
