<svg width="106" height="84" viewBox="0 0 106 84" fill="none" xmlns="http://www.w3.org/2000/svg">
<rect width="106" height="84" fill="white"/>
<path fill-rule="evenodd" clip-rule="evenodd" d="M10 0C7.98438 0 5.50156 0.39209 3.46291 1.8812C1.28601 3.47128 0 6.02737 0 9.5V75C0 76.5131 0.291016 78.7727 1.76141 80.7026C3.32893 82.76 5.89049 84 9.5 84H34.5V79H9.5C7.10951 79 6.17107 78.24 5.73859 77.6724C5.20898 76.9773 5 75.9869 5 75V9.5C5 7.37265 5.71399 6.42871 6.41209 5.91879C7.24844 5.30792 8.51562 5 10 5H34.5V0H10ZM56.4651 29H61.4416L61.465 24.0235L61.5433 7.37189L100.267 42.2857L61.2168 76.8338L61.2911 61.0235L61.3147 56H56.2911H27V29H56.4651ZM56.2063 79.0442L56.2676 66L56.2911 61H51.2911H27C24.2386 61 22 58.7614 22 56V29C22 26.2386 24.2386 24 27 24H56.4651L56.5539 5.1145C56.5701 1.65866 60.6657 -0.151642 63.2323 2.16251L104.447 39.3219C106.22 40.9207 106.207 43.7066 104.419 45.2886L62.8567 82.0589C60.2684 84.3488 56.1901 82.5 56.2063 79.0442Z" fill="#DEE4E9"/>
</svg>
